<?xml version="1.0" encoding="UTF-8"?>
<svg xmlns="http://www.w3.org/2000/svg" xmlns:xlink="http://www.w3.org/1999/xlink" viewBox="0 0 48 48" width="48px" height="48px">
<g id="surface103496101">
<rect x="0" y="0" width="48" height="48" style="fill:rgb(100%,100%,100%);fill-opacity:1;stroke:none;"/>
<path style=" stroke:none;fill-rule:nonzero;fill:rgb(80.000001%,80.000001%,80.000001%);fill-opacity:1;" d="M 29.035156 24 C 29.015625 23.671875 29 23.339844 29 23 C 29 16.921875 31.859375 13 36 13 C 39.410156 13 42.328125 15.660156 43 20 L 45 20 L 45 11 L 43 11 C 43 11 42.46875 12.507812 42 12.160156 C 40.101562 11.09375 38.277344 11.027344 35.976562 11.027344 C 30.175781 11.027344 25 16.261719 25 22.921875 C 25 23.285156 25.019531 23.644531 25.050781 24 L 22.949219 24 C 22.980469 23.644531 23 23.285156 23 22.921875 C 23 16.261719 17.824219 11.027344 12.023438 11.027344 C 9.722656 11.027344 7.898438 11.09375 6 12.160156 C 5.53125 12.507812 5 11 5 11 L 3 11 L 3 20 L 5 20 C 5.671875 15.660156 8.589844 13 12 13 C 16.140625 13 19 16.921875 19 23 C 19 23.339844 18.984375 23.671875 18.964844 24 L 0 24 L 0 26 L 1.007812 26 C 2.09375 26 2.984375 26.859375 3.007812 27.941406 C 3.046875 29.789062 3.222656 32.007812 4 33 C 5.269531 34.625 7 36 12 36 C 17.023438 36 21.921875 31.472656 23 26 L 25 26 C 26.078125 31.472656 30.976562 36 36 36 C 41 36 42.730469 34.625 44 33 C 44.777344 32.007812 44.953125 29.789062 44.992188 27.941406 C 45.015625 26.859375 45.910156 26 46.992188 26 L 48 26 L 48 24 Z M 11.476562 33.730469 C 9.871094 33.730469 7.320312 33.722656 7 32 C 6.890625 31.417969 6.910156 29.472656 6.941406 27.953125 C 6.96875 26.867188 7.855469 26 8.941406 26 L 19 26 C 18.207031 30.78125 15.015625 33.730469 11.476562 33.730469 Z M 41 32 C 40.679688 33.722656 38.128906 33.730469 36.523438 33.730469 C 32.984375 33.730469 29.792969 30.78125 29 26 L 39.058594 26 C 40.144531 26 41.03125 26.867188 41.058594 27.953125 C 41.089844 29.472656 41.109375 31.417969 41 32 Z M 41 32 "/>
</g>
</svg>
